<svg width="731" height="560" viewBox="0 0 731 560" fill="none" xmlns="http://www.w3.org/2000/svg">
<g clip-path="url(#clip0_697_18964)">
<mask id="mask0_697_18964" style="mask-type:luminance" maskUnits="userSpaceOnUse" x="0" y="0" width="731" height="560">
<path d="M731 0H0.629639V560H731V0Z" fill="white"/>
</mask>
<g mask="url(#mask0_697_18964)">
<path d="M570.994 503.574C719.864 477.639 727.236 404.292 689.541 338.781C642.567 257.144 686.662 200.823 626.33 188.317C563.701 175.328 562.898 333.715 418.761 332.031C205.758 329.519 383.334 536.286 570.994 503.574Z" fill="#F0F6FE"/>
<path d="M168.003 72.389C36.9973 95.212 30.51 159.758 63.6817 217.407C105.019 289.248 66.215 338.81 119.308 349.816C174.421 361.246 175.128 221.865 301.968 223.347C489.411 225.558 333.144 43.6026 168.003 72.389Z" fill="#F0F6FE"/>
<path d="M130.573 98.2548C130.573 86.4809 140.132 76.9214 151.906 76.9214H574.84C586.613 76.9214 596.173 86.4809 596.173 98.2548V390.638C596.173 402.412 586.613 411.972 574.84 411.972H151.906C140.132 411.972 130.573 402.412 130.573 390.638V98.2548Z" fill="url(#paint0_linear_697_18964)"/>
<mask id="mask1_697_18964" style="mask-type:alpha" maskUnits="userSpaceOnUse" x="130" y="76" width="467" height="336">
<path d="M130.571 98.2571C130.571 86.4793 140.132 76.9238 151.905 76.9238H574.838C586.616 76.9238 596.171 86.4793 596.171 98.2571V390.637C596.171 402.415 586.616 411.971 574.838 411.971H151.905C140.132 411.971 130.571 402.415 130.571 390.637V98.2571Z" fill="#FFB887"/>
<path d="M130.573 98.2548C130.573 86.4809 140.132 76.9214 151.906 76.9214H574.84C586.613 76.9214 596.173 86.4809 596.173 98.2548V390.638C596.173 402.412 586.613 411.972 574.84 411.972H151.906C140.132 411.972 130.573 402.412 130.573 390.638V98.2548Z" fill="url(#paint1_linear_697_18964)"/>
</mask>
<g mask="url(#mask1_697_18964)">
<path d="M194.704 287.944C194.704 281.403 200.015 276.092 206.556 276.092H477.667C484.208 276.092 489.519 281.403 489.519 287.944V459.796C489.519 466.337 484.208 471.647 477.667 471.647H206.556C200.015 471.647 194.704 466.337 194.704 459.796V287.944Z" fill="#B2C6FE"/>
</g>
<path d="M353.52 162.338L209.728 278.531V300.19H361.372H513.016V278.531L369.224 162.338C364.646 158.649 358.098 158.649 353.52 162.338Z" fill="#B2C6FE"/>
<mask id="mask2_697_18964" style="mask-type:luminance" maskUnits="userSpaceOnUse" x="209" y="158" width="305" height="263">
<path d="M209.519 158.519H513.222V420.741H209.519V158.519Z" fill="white"/>
</mask>
<g mask="url(#mask2_697_18964)">
<path d="M485.055 420.267H243.618C236.714 420.267 231.114 414.667 231.114 407.764V171.023C231.114 164.119 236.714 158.519 243.618 158.519H485.055C491.958 158.519 497.558 164.119 497.558 171.023V407.764C497.558 414.667 491.958 420.267 485.055 420.267Z" fill="#F0F6FE"/>
<path d="M423.341 224.876C423.341 259.306 395.371 287.217 360.867 287.217C326.378 287.217 298.408 259.306 298.408 224.876C298.408 190.432 326.378 162.521 360.867 162.521C395.371 162.521 423.341 190.432 423.341 224.876Z" fill="#F0F6FE"/>
<mask id="mask3_697_18964" style="mask-type:alpha" maskUnits="userSpaceOnUse" x="298" y="162" width="126" height="126">
<path d="M423.342 224.875C423.342 259.305 395.372 287.216 360.868 287.216C326.379 287.216 298.409 259.305 298.409 224.875C298.409 190.431 326.379 162.52 360.868 162.52C395.372 162.52 423.342 190.431 423.342 224.875Z" fill="#FFB887"/>
<path d="M423.341 224.876C423.341 259.306 395.371 287.217 360.867 287.217C326.378 287.217 298.408 259.306 298.408 224.876C298.408 190.432 326.378 162.521 360.867 162.521C395.371 162.521 423.341 190.432 423.341 224.876Z" fill="#F0F6FE"/>
</mask>
<g mask="url(#mask3_697_18964)">
<mask id="mask4_697_18964" style="mask-type:luminance" maskUnits="userSpaceOnUse" x="292" y="178" width="130" height="121">
<path d="M292.481 178.765H421.37V298.765H292.481V178.765Z" fill="white"/>
</mask>
<g mask="url(#mask4_697_18964)">
<path d="M367.484 249.035C373.618 249.035 378.299 249.524 378.299 245.435C378.299 241.346 374.062 239.228 367.929 239.228C361.78 239.228 356.521 241.02 356.521 245.109C356.521 249.213 361.336 249.035 367.484 249.035Z" fill="#FFB887"/>
<path d="M355.604 214.675C361.886 214.675 366.982 209.608 366.982 203.386C366.982 197.149 361.886 192.097 355.604 192.097C349.323 192.097 344.227 197.149 344.227 203.386C344.227 209.608 349.323 214.675 355.604 214.675ZM378.981 213.436C385.262 213.436 390.358 208.37 390.358 202.148C390.358 195.911 385.262 190.859 378.981 190.859C372.699 190.859 367.603 195.911 367.603 202.148C367.603 208.37 372.699 213.436 378.981 213.436ZM377.982 204.777C384.264 204.777 389.36 199.711 389.36 193.488C389.36 187.251 384.264 182.199 377.982 182.199C371.701 182.199 366.604 187.251 366.604 193.488C366.604 199.711 371.701 204.777 377.982 204.777ZM356.052 205.731C362.333 205.731 367.43 200.665 367.43 194.442C367.43 188.205 362.333 183.154 356.052 183.154C349.77 183.154 344.674 188.205 344.674 194.442C344.674 200.665 349.77 205.731 356.052 205.731ZM367.018 201.343C373.299 201.343 378.395 196.276 378.395 190.054C378.395 183.817 373.299 178.765 367.018 178.765C360.736 178.765 355.64 183.817 355.64 190.054C355.64 196.276 360.736 201.343 367.018 201.343Z" fill="#FFB887"/>
<path d="M362.67 250.468L360.67 249.49C359.277 248.808 358.21 247.594 357.722 246.127C357.247 244.645 357.381 243.045 358.107 241.682C360.151 237.89 360.151 233.949 359.544 230.749C359.233 229.075 359.677 227.342 360.788 226.038C361.884 224.734 363.514 223.979 365.233 223.979C368.418 223.979 371.01 226.542 371.01 229.712V245.312C371.01 247.297 369.973 249.134 368.284 250.186C366.581 251.238 364.462 251.342 362.67 250.468ZM372.148 250.822C370.356 251.696 368.237 251.592 366.548 250.54C364.859 249.503 363.822 247.666 363.822 245.681V230.081C363.822 228.555 364.43 227.088 365.511 226.022C366.593 224.94 368.059 224.333 369.6 224.333C371.319 224.333 372.948 225.088 374.044 226.392C375.141 227.696 375.6 229.429 375.289 231.103C374.667 234.303 374.682 238.244 376.726 242.037C377.452 243.399 377.585 244.999 377.096 246.481C376.622 247.948 375.556 249.162 374.148 249.844L372.148 250.822Z" fill="#FFB887"/>
<path d="M350.954 224.282C353.799 224.282 356.11 222.001 356.11 219.171C356.11 216.342 353.799 214.06 350.954 214.06C348.11 214.06 345.799 216.342 345.799 219.171C345.799 222.001 348.11 224.282 350.954 224.282Z" fill="#FFB887"/>
<path d="M383.173 224.142C386.018 224.142 388.329 221.86 388.329 219.031C388.329 216.201 386.018 213.919 383.173 213.919C380.329 213.919 378.018 216.201 378.018 219.031C378.018 221.86 380.329 224.142 383.173 224.142Z" fill="#FFB887"/>
<path d="M387.455 212.651C387.455 220.355 383.929 230.414 377.499 233.762C374.699 235.214 372.758 239.644 367.158 239.496C361.351 239.362 359.855 235.051 356.995 233.511C350.699 230.118 347.099 220.251 347.099 212.651C347.232 201.688 356.225 192.874 367.277 192.874C378.329 192.874 387.321 201.688 387.455 212.651Z" fill="#FFB887"/>
<path d="M367.147 189.176C340.999 188.228 347.073 214.657 347.073 214.657C348.243 211.546 349.221 208.331 350.495 205.279C351.073 203.857 351.813 202.524 352.732 201.309C353.517 200.317 354.273 199.072 355.547 198.628C356.88 198.168 358.287 198.791 359.621 198.894C360.154 198.924 366.287 199.235 367.147 198.909C368.021 199.235 374.139 198.924 374.673 198.894C376.021 198.791 377.428 198.168 378.762 198.628C380.021 199.057 380.791 200.317 381.562 201.309C382.48 202.524 383.236 203.857 383.799 205.279C385.087 208.331 386.065 211.546 387.221 214.657C387.221 214.657 393.295 188.228 367.147 189.176Z" fill="#FFB887"/>
<path d="M357.969 244.157C359.776 247.342 368.783 248.29 367.302 248.29V293.075L341.657 291.297C340.561 285.682 339.732 259.238 344.339 255.801C345.228 255.105 347.006 249.816 348.783 246.912C349.657 245.46 350.457 245.786 351.302 245.223C356.398 241.816 357.302 242.631 357.302 242.631L357.969 244.157ZM376.82 244.151L377.517 242.625C377.517 242.625 382.463 245.202 390.374 251.321C394.982 254.758 397.206 279.765 396.109 285.38L367.204 286.788V248.284C367.204 248.284 375.013 247.336 376.82 244.151Z" fill="#FFB887"/>
<g opacity="0.31">
<path d="M351.741 270.908C351.741 270.908 351.978 287.219 348.778 287.219C345.578 287.219 341.371 285.426 341.371 285.426L351.741 270.908Z" fill="#FFB887"/>
</g>
<mask id="mask5_697_18964" style="mask-type:luminance" maskUnits="userSpaceOnUse" x="305" y="229" width="22" height="40">
<path d="M320.513 229.363L305.904 231.821L312.048 268.345L326.658 265.887L320.513 229.363Z" fill="white"/>
</mask>
<g mask="url(#mask5_697_18964)">
<path d="M325.856 261.123C325.856 261.123 321.22 248.833 321.077 247.986C320.935 247.138 320.789 241.184 318.335 236.774C316.957 234.302 316.059 234.768 316.173 237.138C316.223 238.151 316.771 241.319 316.771 241.319C316.771 241.319 314.377 233.429 312.471 232.457C312.156 232.285 311.232 231.344 310.545 231.459C309.8 231.585 308.847 231.279 308.091 231.872C307.332 232.451 306.975 233.457 306.784 234.285C306.656 234.863 306.735 235.691 306.995 236.789C307.367 238.288 308.038 242.277 310.34 247.118C311.224 248.982 314.109 252.643 314.109 252.643L318.101 265.928L326.001 261.985L325.856 261.123Z" fill="#FFB887"/>
<mask id="mask6_697_18964" style="mask-type:alpha" maskUnits="userSpaceOnUse" x="306" y="231" width="21" height="35">
<path d="M325.856 261.123C325.856 261.123 321.22 248.833 321.077 247.986C320.935 247.138 320.789 241.184 318.335 236.774C316.957 234.302 316.059 234.768 316.173 237.138C316.223 238.151 316.771 241.319 316.771 241.319C316.771 241.319 314.377 233.429 312.471 232.457C312.156 232.285 311.232 231.344 310.545 231.459C309.8 231.585 308.847 231.279 308.091 231.872C307.332 232.451 306.975 233.457 306.784 234.285C306.656 234.863 306.735 235.691 306.995 236.789C307.367 238.288 308.038 242.277 310.34 247.118C311.224 248.982 314.109 252.643 314.109 252.643L318.101 265.928L326.001 261.985L325.856 261.123Z" fill="#FFB887"/>
<path d="M325.856 261.123C325.856 261.123 321.22 248.833 321.077 247.986C320.935 247.138 320.789 241.184 318.335 236.774C316.957 234.302 316.059 234.768 316.173 237.138C316.223 238.151 316.771 241.319 316.771 241.319C316.771 241.319 314.377 233.429 312.471 232.457C312.156 232.285 311.232 231.344 310.545 231.459C309.8 231.585 308.847 231.279 308.091 231.872C307.332 232.451 306.975 233.457 306.784 234.285C306.656 234.863 306.735 235.691 306.995 236.789C307.367 238.288 308.038 242.277 310.34 247.118C311.224 248.982 314.109 252.643 314.109 252.643L318.101 265.928L326.001 261.985L325.856 261.123Z" fill="#FFB887"/>
</mask>
<g mask="url(#mask6_697_18964)">
<path d="M325.932 261.574L325.504 259.032C325.504 259.032 322.558 260.985 321.348 261.474C320.138 261.963 316.629 262.268 316.629 262.268L317.89 264.67L325.932 261.574Z" fill="#FFB887"/>
</g>
</g>
<path d="M330.461 267.785C329.876 266.366 327.702 260.407 327.702 260.407L316.037 264.112C316.037 264.112 321.815 288.814 325.378 293.923C327.497 296.962 330.465 298.266 332.73 297.885C341.817 296.356 331.145 269.442 330.461 267.785Z" fill="#FFB887"/>
<path d="M348.776 246.914C348.776 246.914 341.117 250.869 336.199 266.958C334.436 272.721 335.962 270.425 335.562 268.677C335.221 267.18 330.51 298.736 332.806 298.736C342.021 298.736 350.169 273.832 350.169 273.832L348.776 246.914Z" fill="#FFB887"/>
<path d="M385.602 224.965C386.535 224.965 387.305 224.21 387.305 223.276C387.305 222.328 386.535 221.573 385.602 221.573C384.653 221.573 383.883 222.328 383.883 223.276C383.883 224.21 384.653 224.965 385.602 224.965Z" fill="#B2C6FE"/>
<path d="M349.241 225.426C350.175 225.426 350.945 224.671 350.945 223.737C350.945 222.789 350.175 222.034 349.241 222.034C348.293 222.034 347.523 222.789 347.523 223.737C347.523 224.671 348.293 225.426 349.241 225.426Z" fill="#B2C6FE"/>
<path d="M368.037 230.617C371.311 230.617 373.963 226.173 373.963 226.173H362.111C362.111 226.173 364.763 230.617 368.037 230.617Z" fill="#F0F6FE"/>
<path d="M357.667 212.677C357.667 212.677 360.629 210.38 363.592 212.677" stroke="#FFB887" stroke-width="1.48148" stroke-linecap="round"/>
<path d="M370.99 212.677C370.99 212.677 373.953 210.38 376.916 212.677" stroke="#FFB887" stroke-width="1.48148" stroke-linecap="round"/>
<g opacity="0.31">
<path d="M383.415 267.654L382.481 285.432L387.059 282.469L383.415 267.654Z" fill="#FFB887"/>
</g>
</g>
</g>
<path d="M405.785 328.646C404.733 328.646 403.948 328.364 403.415 327.802C402.882 327.224 402.615 326.483 402.615 325.564C402.615 324.498 402.911 323.639 403.519 323.002C404.126 322.364 404.971 322.039 406.067 322.039C407.104 322.039 407.889 322.29 408.422 322.809C408.956 323.313 409.222 324.068 409.222 325.061C409.222 326.157 408.926 327.016 408.304 327.668C407.682 328.32 406.852 328.646 405.785 328.646ZM407.125 320.148C406.65 320.148 406.265 320.044 405.954 319.837C405.643 319.615 405.495 319.289 405.495 318.844L405.525 318.548C405.939 315.896 406.473 312.874 407.169 309.482C407.851 306.104 408.488 303.17 409.08 300.711C409.465 299.185 410.502 298.43 412.176 298.43C413.702 298.43 414.458 298.919 414.458 299.882C414.458 300.104 414.413 300.341 414.354 300.593C413.732 303.111 412.917 306.148 411.895 309.719C410.873 313.289 409.91 316.385 408.976 319.022C408.725 319.778 408.102 320.148 407.125 320.148ZM392.615 324.806C393.415 324.806 394.096 324.376 394.659 323.502C395.222 322.613 395.489 321.339 395.489 319.65C395.489 318.347 395.252 317.369 394.778 316.702C394.304 316.036 393.741 315.71 393.074 315.71C392.23 315.71 391.519 316.139 390.956 317.013C390.408 317.873 390.126 319.162 390.126 320.865C390.126 322.213 390.363 323.206 390.837 323.858C391.311 324.495 391.904 324.806 392.615 324.806ZM392.23 328.655C390.822 328.655 389.637 328.299 388.645 327.603C387.667 326.907 386.926 325.988 386.422 324.847C385.933 323.707 385.682 322.492 385.682 321.188C385.682 319.381 386.022 317.781 386.689 316.373C387.37 314.951 388.289 313.855 389.445 313.055C390.615 312.27 391.919 311.87 393.356 311.87C394.763 311.87 395.963 312.225 396.956 312.922C397.948 313.618 398.689 314.536 399.193 315.677C399.696 316.818 399.933 318.033 399.933 319.336C399.933 321.144 399.593 322.744 398.911 324.151C398.215 325.559 397.296 326.67 396.111 327.455C394.941 328.255 393.652 328.655 392.23 328.655ZM382.902 298.572C382.354 298.572 381.732 299.55 381.051 301.52C380.369 303.49 379.762 305.935 379.243 308.853C378.71 311.757 378.428 314.557 378.384 317.239C380.073 314.468 381.406 311.683 382.399 308.898C383.391 306.113 383.895 303.579 383.895 301.268C383.895 299.476 383.569 298.572 382.902 298.572ZM384.268 327.437C383.068 328.252 381.72 328.652 380.194 328.652C378.105 328.652 376.565 327.704 375.557 325.807C374.55 323.911 374.046 321.452 374.046 318.444C374.046 315.556 374.416 312.267 375.172 308.563C375.913 304.859 377.009 301.689 378.476 299.037C379.928 296.385 381.661 295.052 383.676 295.052C384.816 295.052 385.72 295.585 386.372 296.637C387.024 297.689 387.35 299.2 387.35 301.17C387.35 303.985 386.565 307.259 384.994 310.978C383.439 314.696 381.305 318.385 378.639 322.044C378.802 323.007 379.068 323.704 379.453 324.119C379.824 324.533 380.328 324.741 380.95 324.741C381.913 324.741 382.772 324.459 383.498 323.911C384.239 323.348 384.55 323.496 385.676 322.148C385.972 321.807 385.468 326.637 384.268 327.437ZM370.485 298.572C369.936 298.572 369.314 299.55 368.633 301.52C367.951 303.49 367.344 305.935 366.825 308.853C366.292 311.757 366.011 314.557 365.966 317.239C367.655 314.468 368.988 311.683 369.981 308.898C370.973 306.113 371.477 303.579 371.477 301.268C371.477 299.476 371.151 298.572 370.485 298.572ZM374.043 325.556C373.021 326.815 373.05 326.637 371.851 327.437C370.65 328.252 369.302 328.652 367.776 328.652C365.688 328.652 364.147 327.704 363.139 325.807C362.132 323.911 361.628 321.452 361.628 318.444C361.628 315.556 361.999 312.267 362.754 308.563C363.495 304.859 364.591 301.689 366.058 299.037C367.51 296.385 369.243 295.052 371.258 295.052C372.399 295.052 373.302 295.585 373.954 296.637C374.606 297.689 374.932 299.2 374.932 301.17C374.932 303.985 374.147 307.259 372.576 310.978C371.021 314.696 368.888 318.385 366.221 322.044C366.384 323.007 366.651 323.704 367.036 324.119C367.406 324.533 367.91 324.741 368.532 324.741C369.495 324.741 370.354 324.459 371.08 323.911C371.821 323.348 372.754 322.4 373.895 321.037C374.176 320.711 374.502 325.037 374.043 325.556ZM353.474 315.39C352.6 315.39 351.859 315.893 351.252 316.916C350.645 317.938 350.348 319.167 350.348 320.619V320.693C351.741 320.353 352.852 319.864 353.652 319.197C354.467 318.53 354.867 317.76 354.867 316.886C354.867 316.427 354.733 316.071 354.496 315.804C354.245 315.523 353.904 315.39 353.474 315.39ZM362.105 324.735C361.231 325.802 360.639 326.394 359.039 327.298C357.439 328.202 355.735 328.646 353.898 328.646C351.409 328.646 349.483 327.979 348.105 326.631C346.728 325.268 346.046 323.431 346.046 321.076C346.046 319.446 346.387 317.92 347.083 316.513C347.765 315.105 348.713 313.979 349.942 313.15C351.157 312.32 352.535 311.905 354.076 311.905C355.453 311.905 356.565 312.32 357.394 313.135C358.224 313.95 358.639 315.061 358.639 316.453C358.639 318.098 358.046 319.49 356.876 320.676C355.705 321.846 353.72 322.779 350.92 323.461C351.513 324.557 352.639 325.09 354.298 325.09C355.365 325.09 356.579 324.72 357.942 323.979C359.305 323.224 360.476 322.246 361.483 321.046C361.631 320.853 361.676 321.979 361.853 323.002C361.987 323.816 362.313 324.513 362.105 324.735ZM338.212 300.385C337.693 300.385 337.145 300.859 336.568 301.807C335.975 302.756 335.427 304.044 334.908 305.689C334.39 307.319 333.975 309.111 333.664 311.052C335.56 310.267 336.953 309.156 337.856 307.704C338.76 306.267 339.205 304.4 339.205 302.133C339.205 301.585 339.116 301.156 338.923 300.844C338.73 300.533 338.493 300.385 338.212 300.385ZM343.015 320.551C343.326 320.551 343.563 320.684 343.741 320.966C343.919 321.262 344.008 321.647 344.008 322.151C344.008 323.07 343.785 323.81 343.341 324.344C340.985 327.218 338.482 328.655 335.83 328.655C333.533 328.655 331.696 327.766 330.319 325.988C328.941 324.21 328.259 321.662 328.259 318.344C328.259 317.529 328.289 316.729 328.363 315.929C326.808 316.21 325.089 316.418 323.252 316.566C322.008 316.655 321.178 316.714 320.719 316.744C320.245 319.159 319.578 322.122 318.733 325.633C318.23 327.692 317.282 328.729 315.889 328.729C314.363 328.729 313.608 328.033 313.608 326.655C313.608 326.359 313.667 325.929 313.785 325.381C314.6 322.136 315.237 319.381 315.711 317.129L314.008 317.203C313.222 317.203 312.645 317.07 312.289 316.788C311.933 316.522 311.756 316.077 311.756 315.455C311.756 314.684 311.993 314.107 312.437 313.736C312.882 313.366 313.637 313.159 314.674 313.114L316.556 313.04C317.178 309.707 317.489 307.159 317.489 305.396C317.489 304.284 317.326 303.529 316.985 303.129C316.659 302.714 316.215 302.522 315.667 302.522C314.008 302.522 312.141 303.899 310.052 306.684C309.741 307.084 309.4 307.277 309.03 307.277C308.689 307.277 308.408 307.129 308.17 306.818C307.933 306.507 307.815 306.122 307.815 305.647C307.815 304.907 308.111 304.136 308.704 303.307C309.741 301.855 311.059 300.67 312.645 299.722C314.245 298.788 315.845 298.329 317.489 298.329C319.03 298.329 320.215 298.847 321.059 299.899C321.904 300.966 322.319 302.596 322.319 304.833C322.319 306.803 322.037 309.47 321.474 312.833L324.956 312.655C326.452 312.581 327.726 312.462 328.793 312.299C329.222 309.692 329.874 307.247 330.748 304.966C331.622 302.699 332.719 300.847 334.022 299.425C335.326 298.003 336.778 297.292 338.393 297.292C339.578 297.292 340.511 297.766 341.208 298.699C341.889 299.633 342.23 300.862 342.23 302.373C342.23 308.255 339.237 312.329 333.237 314.61C333.163 315.559 333.133 316.536 333.133 317.559C333.133 320.047 333.445 321.81 334.052 322.862C334.674 323.899 335.533 324.418 336.645 324.418C337.622 324.418 338.511 324.166 339.311 323.662C340.126 323.144 341.03 322.27 342.052 321.04C342.333 320.714 342.659 320.551 343.015 320.551Z" fill="#B2C6FE"/>
</g>
<mask id="mask7_697_18964" style="mask-type:luminance" maskUnits="userSpaceOnUse" x="209" y="278" width="305" height="185">
<path d="M209.519 278.518H513.222V462.222H209.519V278.518Z" fill="white"/>
</mask>
<g mask="url(#mask7_697_18964)">
<path d="M513.016 278.808V449.727C513.016 456.631 507.416 462.216 500.513 462.216H222.231C215.328 462.216 209.728 456.631 209.728 449.727V278.808L363.031 399.727L513.016 278.808Z" fill="#B2C6FE"/>
<path d="M511.329 455.979L370.885 342.735C366.307 339.046 359.773 339.046 355.196 342.735L212.603 457.698C214.899 460.468 218.351 462.216 222.218 462.216H500.514C505.136 462.216 509.166 459.698 511.329 455.979Z" fill="#B2C6FE"/>
</g>
<path d="M477.322 66.3394L492.591 53.3326L502.93 65.4661L487.651 78.4628L477.322 66.3394Z" fill="#F0F6FE"/>
<path d="M288.249 69.4109L304.164 55.8535L314.942 68.5006L299.015 82.0475L288.249 69.4109Z" fill="#B2C6FE"/>
<path d="M277.69 504.606L293.381 491.24L304.007 503.708L288.305 517.064L277.69 504.606Z" fill="#B2C6FE"/>
<path d="M85.0989 174.549L100.368 161.543L110.707 173.676L95.4278 186.673L85.0989 174.549Z" fill="#B2C6FE"/>
<path d="M406.871 417.863L411.993 403.942L423.058 408.021L417.936 421.942L406.871 417.863Z" fill="#F0F6FE"/>
<path d="M113.711 331.371L128.458 332.973L127.177 344.696L112.43 343.094L113.711 331.371Z" fill="#B2C6FE"/>
<path d="M337.671 169.849L342.793 155.928L353.858 160.007L348.736 173.928L337.671 169.849Z" fill="#D0E0FE"/>
<path d="M633.556 253.914L648.302 255.516L647.021 267.238L632.275 265.636L633.556 253.914Z" fill="#B2C6FE"/>
<path d="M270.494 293.297L260.802 282.069L269.734 274.369L279.426 285.597L270.494 293.297Z" fill="#B2C6FE"/>
<path d="M556.849 182.404L580.698 169.613L591.258 189.283L567.408 202.074L556.849 182.404Z" fill="#B2C6FE"/>
<mask id="mask8_697_18964" style="mask-type:luminance" maskUnits="userSpaceOnUse" x="474" y="330" width="105" height="148">
<path d="M474.704 330.37H578.407V477.037H474.704V330.37Z" fill="white"/>
</mask>
<g mask="url(#mask8_697_18964)">
<path d="M474.704 333.73C474.704 331.876 476.209 330.37 478.064 330.37H574.381C576.235 330.37 577.741 331.876 577.741 333.73V473.144C577.741 474.998 576.235 476.504 574.381 476.504H478.064C476.209 476.504 474.704 474.998 474.704 473.144V333.73Z" fill="#F0F6FE"/>
<path d="M505.815 440.212H540.96V445.066H505.815V440.212Z" fill="#FED8BE" fill-opacity="0.47"/>
<path d="M496.482 427.46H544.056V433.03H496.482V427.46Z" fill="#FED8BE" fill-opacity="0.47"/>
<path d="M525.519 414.029C509.489 414.029 496.482 401.081 496.482 385.111C496.482 369.14 509.489 356.192 525.519 356.192C541.548 356.192 554.556 369.14 554.556 385.111C554.556 401.081 541.548 414.029 525.519 414.029ZM525.519 398.545C532.971 398.545 539 392.53 539 385.108C539 377.7 532.971 371.685 525.519 371.685C518.067 371.685 512.037 377.7 512.037 385.108C512.037 392.53 518.067 398.545 525.519 398.545Z" fill="#F0F6FE"/>
<mask id="mask9_697_18964" style="mask-type:alpha" maskUnits="userSpaceOnUse" x="496" y="356" width="59" height="59">
<path d="M525.519 414.031C509.489 414.031 496.482 401.083 496.482 385.112C496.482 369.142 509.489 356.194 525.519 356.194C541.548 356.194 554.556 369.142 554.556 385.112C554.556 401.083 541.548 414.031 525.519 414.031ZM525.519 398.545C532.971 398.545 539 392.53 539 385.108C539 377.7 532.971 371.685 525.519 371.685C518.067 371.685 512.037 377.7 512.037 385.108C512.037 392.53 518.067 398.545 525.519 398.545Z" fill="#FFB887"/>
<path d="M525.519 414.029C509.489 414.029 496.482 401.081 496.482 385.111C496.482 369.14 509.489 356.192 525.519 356.192C541.548 356.192 554.556 369.14 554.556 385.111C554.556 401.081 541.548 414.029 525.519 414.029ZM525.519 398.545C532.971 398.545 539 392.53 539 385.108C539 377.7 532.971 371.685 525.519 371.685C518.067 371.685 512.037 377.7 512.037 385.108C512.037 392.53 518.067 398.545 525.519 398.545Z" fill="#F0F6FE"/>
</mask>
<g mask="url(#mask9_697_18964)">
<path d="M525.542 371.947L526.68 437.139L546.373 408.627L588.324 347.889L561.04 338.147L525.025 339.925L525.542 371.947Z" fill="#B2C6FE"/>
</g>
</g>
<path d="M566.888 242.449C574.236 226.982 592.77 220.389 608.251 227.738C623.747 235.071 630.34 253.575 622.992 269.041C616.325 283.056 600.503 289.782 586.073 285.471L577.525 291.352L576.681 280.834C564.814 272.241 560.37 256.167 566.888 242.449Z" fill="#B2C6FE"/>
<path d="M593.445 269.874L581.371 261.06L585.534 255.371L592.097 260.156L605.134 243.548L610.689 247.904L593.445 269.874Z" fill="#F0F6FE"/>
<mask id="mask10_697_18964" style="mask-type:luminance" maskUnits="userSpaceOnUse" x="181" y="355" width="108" height="115">
<path d="M181.37 355.309H288.037V469.383H181.37V355.309Z" fill="white"/>
</mask>
<g mask="url(#mask10_697_18964)">
<path d="M180.877 379.158V463.809C180.877 467.706 183.855 470.861 187.543 470.861H280.877C284.566 470.861 287.543 467.706 287.543 463.809V379.158H180.877Z" fill="#F0F6FE"/>
<path d="M180.877 356.79H287.543V385.871H180.877V356.79Z" fill="#F0F6FE"/>
<path d="M194.21 367.973H200.877V374.685H194.21V367.973Z" fill="#F0F6FE"/>
<path d="M207.543 367.973H214.21V374.685H207.543V367.973Z" fill="#F0F6FE"/>
<path d="M270.877 374.685H224.21C222.373 374.685 220.877 373.173 220.877 371.322C220.877 369.47 222.373 367.973 224.21 367.973H270.877C272.714 367.973 274.21 369.47 274.21 371.322C274.21 373.173 272.714 374.685 270.877 374.685Z" fill="#F0F6FE"/>
<path d="M196.432 444.442H216.432V452.973H196.432V444.442Z" fill="#B2C6FE"/>
<path d="M223.099 412.799H243.099V452.977H223.099V412.799Z" fill="#B2C6FE"/>
<path d="M249.766 412.743H269.766V452.976H249.766V412.743Z" fill="#B2C6FE"/>
<path d="M273.099 457.444H193.099C191.262 457.444 189.766 455.933 189.766 454.081C189.766 452.229 191.262 450.733 193.099 450.733H273.099C274.936 450.733 276.432 452.229 276.432 454.081C276.432 455.933 274.936 457.444 273.099 457.444Z" fill="#B2C6FE"/>
</g>
</g>
</g>
<defs>
<linearGradient id="paint0_linear_697_18964" x1="630.114" y1="97.2577" x2="298.134" y2="478.596" gradientUnits="userSpaceOnUse">
<stop stop-color="#F0F6FE"/>
<stop offset="0.18" stop-color="#F0F6FE"/>
<stop offset="0.35" stop-color="#D0E0FE"/>
<stop offset="0.68" stop-color="#D0E0FE"/>
<stop offset="1" stop-color="#D0E0FE"/>
</linearGradient>
<linearGradient id="paint1_linear_697_18964" x1="630.114" y1="97.2577" x2="298.134" y2="478.596" gradientUnits="userSpaceOnUse">
<stop stop-color="#F0F6FE"/>
<stop offset="0.18" stop-color="#F0F6FE"/>
<stop offset="0.35" stop-color="#D0E0FE"/>
<stop offset="0.68" stop-color="#D0E0FE"/>
<stop offset="1" stop-color="#D0E0FE"/>
</linearGradient>
<clipPath id="clip0_697_18964">
<rect width="730.37" height="560" fill="white" transform="translate(0.629639)"/>
</clipPath>
</defs>
</svg>
