<svg width="127" height="34" viewBox="0 0 127 34" fill="none" xmlns="http://www.w3.org/2000/svg">
<path d="M0.390625 29H9.27063V14.88L13.6306 29H21.2306L25.5906 14.88V29H34.4306V0.68H23.5906L17.5106 17.68L11.2706 0.68H0.390625V29ZM57.3175 0.68H38.4375V29H57.3175V21.92H47.3175V17.92H56.1175V11.24H47.3175V7.76H57.3175V0.68ZM59.0641 7.72H66.5041V29H75.3841V7.72H82.9041V0.68H59.0641V7.72ZM93.5525 14.72C93.5525 10.88 95.4725 8.4 99.1125 8.4C102.673 8.4 104.633 10.88 104.633 14.72C104.633 18.48 102.673 21 99.1125 21C95.4725 21 93.5525 18.48 93.5525 14.72ZM113.633 14.72C113.633 6.2 107.193 0.199999 99.1125 0.199999C91.0725 0.199999 84.5125 6.2 84.5125 14.72C84.5125 23.24 91.0725 29.28 99.1125 29.28C99.8325 29.28 100.553 29.24 101.233 29.12L103.953 33.6H114.433L108.673 25.84C111.713 23.24 113.633 19.36 113.633 14.72ZM126.316 24.96C126.316 22.48 124.356 20.52 121.236 20.52C118.076 20.52 116.116 22.48 116.116 24.96C116.116 27.4 118.076 29.32 121.236 29.32C124.356 29.32 126.316 27.4 126.316 24.96Z" fill="black"/>
</svg>
