<svg width="669" height="557" viewBox="0 0 669 557" fill="none" xmlns="http://www.w3.org/2000/svg">
<g clip-path="url(#clip0_697_19603)">
<mask id="mask0_697_19603" style="mask-type:luminance" maskUnits="userSpaceOnUse" x="0" y="0" width="669" height="557">
<path d="M669 0H0V556.106H669V0Z" fill="white"/>
</mask>
<g mask="url(#mask0_697_19603)">
<path d="M607.478 339.432C614.246 339.432 619.733 344.919 619.733 351.687C619.733 358.456 614.246 363.943 607.478 363.943C600.709 363.943 595.222 358.456 595.222 351.687C595.222 344.919 600.709 339.432 607.478 339.432Z" fill="#818FCE"/>
<g opacity="0.965066">
<path d="M523.473 245.969C526.486 245.969 528.925 248.412 528.925 251.422C528.925 254.438 526.486 256.88 523.473 256.88C520.46 256.88 518.02 254.438 518.02 251.422C518.02 248.412 520.46 245.969 523.473 245.969Z" fill="#818FCE"/>
</g>
<path d="M564.855 341.436C567.115 341.436 568.947 343.269 568.947 345.529C568.947 347.789 567.115 349.621 564.855 349.621C562.594 349.621 560.762 347.789 560.762 345.529C560.762 343.269 562.594 341.436 564.855 341.436Z" fill="#818FCE"/>
<path d="M54.5851 311.467C63.1913 311.467 70.1687 318.442 70.1687 327.049C70.1687 335.655 63.1913 342.63 54.5851 342.63C45.9789 342.63 39.0015 335.655 39.0015 327.049C39.0015 318.442 45.9789 311.467 54.5851 311.467Z" fill="#818FCE"/>
<path d="M82.9569 304.292C85.9699 304.292 88.4157 306.735 88.4157 309.744C88.4157 312.76 85.9699 315.203 82.9569 315.203C79.944 315.203 77.5046 312.76 77.5046 309.744C77.5046 306.735 79.944 304.292 82.9569 304.292Z" fill="#818FCE"/>
<path d="M151.705 344.828C153.513 344.828 154.979 346.294 154.979 348.102C154.979 349.91 153.513 351.376 151.705 351.376C149.897 351.376 148.431 349.91 148.431 348.102C148.431 346.294 149.897 344.828 151.705 344.828Z" fill="#818FCE"/>
<path d="M322.809 169.349H340.136C340.136 169.349 378.322 305.276 490.21 361.578C602.104 417.886 661.973 425.475 661.973 425.475C661.973 425.475 664.822 516.971 578.613 532.7H95.6175C95.6175 532.7 7.18203 528.501 0.775879 425.475C0.775879 425.475 110.834 401.229 160.655 372.26C210.477 343.291 288.365 279.065 322.809 169.349Z" fill="#3A4BD3"/>
<path d="M469.212 329.417C469.212 337.163 462.932 343.447 455.182 343.447C447.435 343.447 441.152 337.163 441.152 329.417C441.152 321.67 447.435 315.386 455.182 315.386C462.932 315.386 469.212 321.67 469.212 329.417Z" fill="#5B76D6"/>
<path d="M571.659 370.878C571.659 406.798 542.542 435.919 506.622 435.919C470.702 435.919 441.578 406.798 441.578 370.878C441.578 334.961 470.702 305.837 506.622 305.837C542.542 305.837 571.659 334.961 571.659 370.878Z" fill="#5B76D6"/>
<path d="M619.634 388.56C619.634 407.852 603.993 423.497 584.697 423.497C565.401 423.497 549.76 407.852 549.76 388.56C549.76 369.264 565.401 353.622 584.697 353.622C603.993 353.622 619.634 369.264 619.634 388.56Z" fill="#5B76D6"/>
<path d="M668.06 416.51C668.06 434.974 653.089 449.952 634.621 449.952C616.154 449.952 601.182 434.974 601.182 416.51C601.182 398.042 616.154 383.068 634.621 383.068C653.089 383.068 668.06 398.042 668.06 416.51Z" fill="#5B76D6"/>
<path d="M201.797 327.603C201.797 335.35 208.077 341.634 215.827 341.634C223.574 341.634 229.857 335.35 229.857 327.603C229.857 319.857 223.574 313.573 215.827 313.573C208.077 313.573 201.797 319.857 201.797 327.603Z" fill="#5B76D6"/>
<path d="M93.5256 361.355C93.5256 397.275 122.643 426.396 158.563 426.396C194.483 426.396 223.607 397.275 223.607 361.355C223.607 325.438 194.483 296.314 158.563 296.314C122.643 296.314 93.5256 325.438 93.5256 361.355Z" fill="#5B76D6"/>
<path d="M49.3662 388.702C49.3662 407.995 65.0077 423.639 84.3034 423.639C103.599 423.639 119.241 407.995 119.241 388.702C119.241 369.406 103.599 353.765 84.3034 353.765C65.0077 353.765 49.3662 369.406 49.3662 388.702Z" fill="#5B76D6"/>
<path d="M0.940186 413.975C0.940186 432.44 15.9114 447.417 34.379 447.417C52.8466 447.417 67.8178 432.44 67.8178 413.975C67.8178 395.508 52.8466 380.533 34.379 380.533C15.9114 380.533 0.940186 395.508 0.940186 413.975Z" fill="#5B76D6"/>
<path d="M309.021 134.332L292.403 155.696L318.836 189.899L318.901 166.091L309.021 134.332Z" fill="#FA5E5E"/>
<path d="M353.676 134.396L370.233 155.764L343.732 189.963V166.091L353.676 134.396Z" fill="#FA5E5E"/>
<path d="M340.719 162.179L339.756 171.995H322.622L321.92 162.179H340.719Z" fill="#0E528B"/>
<path d="M331.477 1.96515C331.477 1.96515 352.523 32.1848 359.519 66.8965C359.644 67.5409 359.773 68.1822 359.902 68.8234C360.031 69.4647 360.157 70.106 360.221 70.7472C361.185 76.4573 361.762 82.2963 361.762 88.1353C361.762 116.173 353.035 147.808 344.183 166.095H318.9C310.048 147.743 301 116.109 301 88.0708C301 82.2963 301.577 76.4573 302.54 70.6828C302.669 70.0415 302.798 69.4003 302.863 68.759C302.988 68.1177 303.117 67.4765 303.246 66.832C310.368 32.1848 331.477 1.96515 331.477 1.96515Z" fill="white"/>
<path d="M331.477 1.96515C331.477 1.96515 352.523 32.188 359.519 66.8997C359.644 67.5442 359.773 68.1854 359.902 68.8267C351.176 74.9202 341.293 78.1942 331.413 78.1297C321.533 78.1297 311.714 74.859 302.924 68.7622C303.052 68.121 303.181 67.4797 303.31 66.8352C310.367 32.188 331.477 1.96515 331.477 1.96515Z" fill="#FA5E5E"/>
<path d="M303.31 66.832C303.182 67.4732 303.049 68.1145 302.921 68.759C302.795 69.397 302.666 70.0415 302.602 70.6827C306.707 73.5056 311.07 75.6871 315.562 77.2274C320.695 79.0223 326.083 79.9213 331.41 79.9213C336.801 79.9213 342.127 79.0223 347.261 77.2919C351.753 75.7516 356.116 73.57 360.224 70.7472C360.096 70.1059 360.028 69.4614 359.899 68.8202C359.77 68.1789 359.644 67.5377 359.519 66.8964C351.112 72.9287 341.551 76.3928 331.41 76.3928C321.272 76.3284 311.715 72.9287 303.31 66.832Z" fill="#E13030"/>
<path d="M307.079 60.8877C309.597 50.3285 323.3 19.2669 328.433 12.0809C326.445 18.819 310.387 58.1663 313.085 61.3114C309.646 61.4877 307.079 60.8877 307.079 60.8877Z" fill="white"/>
<path d="M334.687 134.396L334.619 178.926L331.284 189.899L327.946 178.926L328.01 134.396H334.687Z" fill="#FA5E5E"/>
<path d="M659.991 554.77H6.04443C2.38703 554.77 -0.62915 553.484 -0.62915 551.921V535.065C-0.62915 533.502 2.38703 532.213 6.04443 532.213H659.991C663.649 532.213 666.665 533.502 666.665 535.065V551.921C666.665 553.51 663.649 554.77 659.991 554.77Z" fill="#393993"/>
<path d="M551.19 512.273C543.772 512.273 537.192 513.565 534.695 514.123C534.073 514.265 533.638 514.835 533.661 515.483C533.741 518.16 534.079 525.305 535.413 532.603C537.028 541.445 541.581 547.352 546.663 547.352H551.19H551.203H555.734C560.812 547.352 565.362 541.445 566.977 532.603C568.308 525.311 568.653 518.173 568.736 515.489C568.756 514.838 568.317 514.268 567.692 514.129C565.147 513.575 558.409 512.273 551.19 512.273Z" fill="#959696"/>
<path d="M549.022 432.996C548.996 432.445 549.135 431.942 549.441 431.481C549.528 431.314 549.299 431.107 549.164 431.269C548.699 431.813 548.538 432.287 548.461 432.996C548.422 433.347 549.015 433.363 549.022 432.996Z" fill="#649AC1"/>
<path d="M550.423 429.644C551.687 427.605 555.715 425.365 554.667 422.487C554.58 422.252 554.261 422.301 554.242 422.545C554.062 424.427 553.375 425.562 552.089 426.921C551.339 427.711 550.678 428.529 550.211 429.519C550.14 429.664 550.34 429.783 550.423 429.644Z" fill="#6DE4BC"/>
<path d="M562.291 434.159C561.682 432.996 561.66 431.932 561.425 430.692C561.392 430.498 561.093 430.511 561.048 430.692C560.735 431.955 561.264 433.302 561.895 434.391C562.043 434.646 562.427 434.42 562.291 434.159Z" fill="#6DE4BC"/>
<path d="M564.47 396.276C563.332 393.006 561.295 389.139 557.367 391.304C552.302 394.092 553.906 402.351 553.816 406.788C553.355 430.021 552.063 495.033 554.564 518.167C554.638 518.873 555.672 518.908 555.682 518.167C555.975 503.096 555.405 446.846 555.305 431.765C555.26 424.721 555.289 417.68 555.389 410.639C555.44 406.727 555.476 402.808 555.605 398.896C555.659 397.301 555.373 394.872 556.923 393.789C559.075 392.287 562.539 394.411 563.612 396.637C563.844 397.111 564.644 396.776 564.47 396.276Z" fill="#0E7B74"/>
<path d="M540.791 389.045C545.725 400.736 546.208 415.878 547.616 428.343C548.967 440.269 549.456 505.996 550.636 517.928C550.7 518.592 551.69 518.624 551.696 517.928C551.831 504.224 550.339 436.64 548.609 423.058C547.169 411.747 546.592 398.88 541.923 388.388C541.578 387.615 540.469 388.285 540.791 389.045Z" fill="#0E7B74"/>
<path d="M534.75 406.675C539.097 409.462 539.425 415.614 540.241 420.087C541.037 424.45 541.749 428.823 542.4 433.208C543.701 441.954 544.343 509.785 545.738 518.515C545.838 519.134 546.821 518.979 546.818 518.367C546.702 507.307 544.907 437.069 542.944 426.209C541.781 419.777 541.652 409.517 535.33 405.686C534.695 405.302 534.137 406.279 534.75 406.675Z" fill="#0E7B74"/>
<path d="M567.009 427.969C562.127 427.153 561.466 438.889 560.857 441.725C558.615 452.162 556.659 507.03 557.345 517.709C557.364 518.019 557.799 518.012 557.819 517.709C558.215 512.834 560.516 427.579 566.97 428.236C567.122 428.249 567.157 427.995 567.009 427.969Z" fill="#0E7B74"/>
<path d="M580.44 402.792C580.192 402.212 579.866 401.664 579.473 401.171C579.016 400.598 578.449 400.085 577.756 399.853C577.16 399.657 576.518 399.689 575.896 399.644C575.065 399.589 574.243 399.402 573.47 399.099C572.884 398.874 572.255 398.484 572.178 397.862C572.113 397.372 572.432 396.908 572.822 396.602C573.554 396.035 574.601 395.899 575.458 396.264C575.948 396.47 576.367 396.821 576.85 397.056C577.327 397.288 577.939 397.379 578.371 397.069C578.848 396.724 578.916 396.012 578.687 395.474C578.458 394.936 577.997 394.533 577.553 394.15C576.267 393.064 574.936 392.007 573.418 391.282C571.904 390.554 570.167 390.173 568.52 390.505C566.871 390.834 565.333 391.955 564.773 393.541C564.589 394.059 564.505 394.623 564.225 395.094C563.806 395.8 563.02 396.193 562.246 396.463C561.302 396.799 560.313 397.002 559.314 397.085C558.434 397.153 557.513 397.13 556.717 397.511C556.072 397.82 555.566 398.374 555.167 398.97C554.016 400.688 553.643 402.857 553.894 404.906C554.149 406.959 554.99 408.905 556.095 410.652C556.504 411.303 556.958 411.934 557.564 412.401C558.17 412.872 559.723 413.581 560.481 413.458C561.209 413.255 560.767 412.253 560.481 411.86C559.784 410.909 559.269 409.74 559.63 408.618C559.955 407.597 560.858 407.909 561.573 408.85C563.097 410.861 561.209 411.812 563.236 414.599C563.642 415.157 566.174 416.61 566.861 416.684C567.386 416.739 568.279 417.125 568.749 416.732C569.465 416.133 568.276 415.073 567.934 414.596C567.467 413.945 567.122 413.168 567.064 412.359C567.051 412.169 567.215 410.668 567.18 410.652C567.953 411.045 567.831 412.031 568.098 412.724C568.604 414.035 570.396 414.512 571.653 414.628C572.826 414.731 574.015 414.609 575.171 414.805C576.141 414.963 577.069 415.35 577.869 415.914C578.104 416.081 578.358 416.278 578.645 416.268C579.296 416.252 579.464 415.366 579.419 414.722C579.232 412.218 578.636 409.485 576.634 407.967C576.28 407.7 575.887 407.481 575.59 407.149C575.297 406.814 575.126 406.321 575.304 405.918C575.61 405.222 576.676 405.29 577.263 405.776C577.846 406.256 578.175 406.991 578.732 407.507C579.29 408.022 580.311 408.215 580.73 407.577C580.843 407.407 580.891 407.197 580.927 406.994C581.188 405.586 581.007 404.107 580.44 402.792Z" fill="#42C5A0"/>
<path d="M515.283 429.815C515.434 428.855 515.708 427.917 516.108 427.031C516.569 426.003 517.216 425.02 518.167 424.411C518.976 423.889 519.939 423.686 520.854 423.383C522.069 422.98 523.229 422.394 524.267 421.65C525.053 421.086 525.843 420.267 525.72 419.307C525.627 418.556 524.976 417.979 524.28 417.676C522.968 417.112 521.357 417.306 520.216 418.176C519.562 418.672 519.076 419.358 518.447 419.89C517.819 420.419 516.942 420.789 516.175 420.486C515.338 420.161 514.961 419.123 515.099 418.231C515.238 417.341 515.763 416.568 516.288 415.83C517.787 413.719 519.372 411.631 521.357 409.968C523.339 408.306 525.775 407.071 528.362 406.933C530.947 406.794 533.67 407.884 535.11 410.036C535.584 410.739 535.919 411.547 536.522 412.147C537.411 413.033 538.735 413.32 539.992 413.426C541.529 413.561 543.082 413.497 544.603 413.233C545.944 413.001 547.307 412.617 548.641 412.878C549.724 413.094 550.681 413.719 551.503 414.454C553.877 416.578 555.263 419.668 555.669 422.823C556.078 425.984 555.566 429.206 554.583 432.235C554.222 433.357 553.784 434.468 553.062 435.4C552.337 436.328 550.291 437.984 549.115 438.087C547.955 438.064 548.232 436.399 548.509 435.706C549.179 434.02 549.501 432.077 548.538 430.543C547.661 429.148 546.434 429.96 545.728 431.629C544.22 435.213 547.404 435.918 545.441 440.849C545.051 441.831 541.829 444.96 540.836 445.331C540.069 445.618 538.893 446.536 538.039 446.127C536.741 445.505 538.11 443.472 538.439 442.637C538.887 441.483 539.103 440.194 538.88 438.967C538.829 438.677 538.004 436.505 538.055 436.463C537.053 437.343 537.614 438.777 537.482 439.911C537.227 442.06 534.736 443.446 532.906 444.1C531.198 444.706 529.378 444.977 527.721 445.708C526.342 446.317 525.101 447.245 524.125 448.399C523.835 448.737 523.539 449.117 523.104 449.217C522.13 449.44 521.541 448.189 521.367 447.206C520.687 443.404 520.529 439.105 522.936 436.083C523.365 435.548 523.864 435.061 524.173 434.449C524.483 433.84 524.56 433.047 524.135 432.509C523.41 431.594 521.847 432.1 521.16 433.044C520.471 433.988 520.265 435.206 519.633 436.189C518.995 437.169 517.545 437.842 516.681 437.059C516.443 436.846 516.291 436.556 516.159 436.266C515.231 434.269 514.941 431.99 515.283 429.815Z" fill="#42C5A0"/>
<path d="M558.518 427.908C560.593 424.025 565.507 421.959 569.703 423.425C571.256 423.967 572.683 424.856 574.272 425.297C574.755 425.433 575.261 425.491 575.774 425.51C576.979 423.01 578.809 420.293 581.468 420.158C584.716 419.99 589.034 422.761 591.028 425.107C592.395 426.712 593.452 428.507 593.497 430.669C593.506 431.075 593.474 431.513 593.226 431.842C592.894 432.287 592.269 432.4 591.712 432.364C591.154 432.329 590.597 432.18 590.046 432.261C589.176 432.383 588.438 433.096 588.215 433.95C587.993 434.8 588.267 435.748 588.86 436.395C589.098 436.663 589.385 436.875 589.681 437.079C590.477 437.307 591.254 437.565 591.921 438.045C593.258 439.002 593.842 440.684 593.851 442.279C593.861 443.665 593.2 444.851 592.711 446.101C592.379 446.962 591.057 450.874 589.582 449.54C589.282 449.269 589.24 448.824 589.188 448.421C589.04 447.284 588.518 446.037 587.429 445.663C586.759 445.428 585.969 445.608 585.457 446.101C584.951 446.597 584.751 447.384 584.964 448.06C585.112 448.531 585.438 448.924 585.705 449.34C586.195 450.094 586.507 450.944 586.643 451.831C587.113 453.384 587.052 455.108 586.656 456.7C586.124 458.82 585.051 460.757 583.991 462.664C583.494 459.577 580.217 457.908 577.417 456.516C574.974 455.308 571.124 453.899 571.559 450.503C571.691 449.462 572.171 448.26 571.472 447.48C570.296 448.437 569.967 450.091 569.973 451.602C569.977 452.456 570.064 453.306 570.083 454.157C570.093 454.579 570.337 455.652 569.751 455.839C569.577 455.894 569.387 455.81 569.222 455.733C567.553 454.918 565.926 453.703 564.84 452.175C563.577 450.41 563.171 447.851 564.437 446.092C564.859 445.508 565.43 445.047 565.871 444.484C568.539 441.068 566.184 439.666 563.709 440.588C562.716 440.952 561.798 441.548 561.096 442.344C560.709 442.782 560.448 443.311 560.245 443.855C560.087 444.274 560.158 444.893 559.816 445.225C558.956 446.066 558.218 443.713 558.012 443.275C557.532 442.26 557.187 441.187 556.952 440.091C556.462 437.826 556.436 435.458 556.803 433.173C557.097 431.346 557.644 429.545 558.518 427.908Z" fill="#1D9E99"/>
<path d="M561.792 467.253C562.349 461.894 558.747 456.361 553.439 454.882C551.474 454.331 549.399 454.215 547.468 453.545C546.882 453.342 546.315 453.045 545.78 452.701C546.276 449.346 546.279 445.328 543.65 443.317C540.44 440.868 534.105 440.61 530.441 441.558C527.937 442.208 525.62 443.262 524.08 445.405C523.79 445.808 523.523 446.269 523.545 446.771C523.581 447.451 524.148 448.002 524.741 448.36C525.337 448.718 526.007 448.963 526.516 449.433C527.322 450.168 527.583 451.402 527.219 452.414C526.861 453.419 525.933 454.176 524.879 454.415C524.451 454.512 524.006 454.528 523.565 454.521C522.591 454.189 521.618 453.899 520.606 453.912C518.576 453.935 516.817 455.211 515.708 456.806C514.745 458.188 514.603 459.845 514.236 461.443C513.988 462.542 512.637 467.404 515.067 467.098C515.56 467.04 515.911 466.625 516.24 466.257C517.181 465.216 518.576 464.337 519.949 464.723C520.79 464.962 521.483 465.7 521.663 466.547C521.844 467.404 521.502 468.336 520.816 468.861C520.339 469.231 519.733 469.399 519.169 469.625C518.151 470.037 517.245 470.675 516.495 471.471C514.941 472.696 513.81 474.468 513.121 476.343C512.202 478.844 511.961 481.544 511.732 484.206C514.371 481.454 518.879 482.086 522.704 482.662C526.036 483.165 530.957 484.464 532.858 480.748C533.435 479.614 533.776 478.064 535.027 477.777C535.571 479.559 534.766 481.457 533.712 482.972C533.122 483.826 532.452 484.615 531.843 485.456C531.54 485.872 530.554 486.777 531.021 487.374C531.163 487.554 531.408 487.606 531.637 487.641C533.908 487.999 536.412 487.921 538.578 487.158C541.085 486.268 543.266 483.99 543.189 481.332C543.16 480.452 542.893 479.588 542.831 478.709C542.454 473.401 545.831 473.659 547.733 476.318C548.493 477.391 549.022 478.634 549.192 479.93C549.283 480.639 549.186 481.351 549.018 482.041C548.893 482.572 548.396 483.143 548.516 483.716C548.819 485.166 551.187 483.326 551.706 483.03C552.895 482.35 553.994 481.515 554.989 480.584C557.052 478.651 558.718 476.295 559.92 473.743C560.88 471.703 561.56 469.505 561.792 467.253Z" fill="#1D9E99"/>
<path d="M553.971 393.853C554.399 390.263 552.06 386.564 548.548 385.578C547.242 385.211 545.867 385.137 544.59 384.689C544.201 384.55 543.83 384.357 543.475 384.128C543.84 381.879 543.888 379.185 542.161 377.844C540.057 376.204 535.845 376.043 533.396 376.684C531.723 377.123 530.17 377.831 529.12 379.272C528.923 379.543 528.743 379.845 528.752 380.184C528.768 380.638 529.139 381.009 529.529 381.247C529.919 381.482 530.367 381.65 530.699 381.963C531.224 382.456 531.385 383.284 531.134 383.96C530.886 384.637 530.257 385.146 529.555 385.307C529.265 385.372 528.971 385.378 528.678 385.372C528.034 385.156 527.393 384.966 526.719 384.976C525.369 384.992 524.183 385.849 523.423 386.919C522.768 387.847 522.656 388.952 522.398 390.025C522.217 390.76 521.27 394.024 522.884 393.815C523.216 393.776 523.452 393.496 523.677 393.251C524.315 392.555 525.25 391.955 526.158 392.213C526.719 392.371 527.17 392.867 527.28 393.438C527.389 394.011 527.154 394.633 526.69 394.991C526.371 395.239 525.971 395.348 525.594 395.503C524.911 395.78 524.296 396.209 523.79 396.74C522.743 397.562 521.969 398.754 521.492 400.011C520.851 401.687 520.664 403.495 520.48 405.277C522.269 403.433 525.259 403.849 527.799 404.233C530.009 404.561 533.267 405.425 534.566 402.934C534.968 402.173 535.21 401.136 536.045 400.939C536.389 402.135 535.835 403.408 535.117 404.423C534.714 404.993 534.259 405.525 533.844 406.089C533.638 406.369 532.97 406.975 533.277 407.374C533.367 407.494 533.531 407.529 533.683 407.555C535.191 407.79 536.86 407.735 538.31 407.216C539.986 406.624 541.461 405.09 541.436 403.311C541.426 402.721 541.262 402.141 541.229 401.555C541.033 398 543.279 398.168 544.513 399.947C545.013 400.662 545.348 401.497 545.444 402.364C545.502 402.84 545.428 403.317 545.309 403.775C545.219 404.133 544.88 404.516 544.955 404.903C545.138 405.87 546.74 404.639 547.085 404.436C547.884 403.981 548.622 403.421 549.295 402.789C550.687 401.497 551.822 399.915 552.65 398.203C553.31 396.837 553.79 395.365 553.971 393.853Z" fill="#3CC7A0"/>
<path d="M117.81 512.273C125.228 512.273 131.808 513.565 134.305 514.123C134.927 514.265 135.359 514.835 135.34 515.483C135.256 518.16 134.914 525.305 133.584 532.603C131.969 541.445 127.419 547.352 122.337 547.352H117.81H117.797H113.263C108.185 547.352 103.635 541.445 102.017 532.603C100.686 525.311 100.345 518.173 100.261 515.489C100.238 514.838 100.683 514.268 101.308 514.129C103.854 513.575 110.592 512.273 117.81 512.273Z" fill="#959696"/>
<path d="M119.978 432.996C120.004 432.445 119.866 431.942 119.563 431.481C119.473 431.314 119.705 431.107 119.84 431.269C120.301 431.813 120.465 432.287 120.539 432.996C120.578 433.347 119.985 433.363 119.978 432.996Z" fill="#649AC1"/>
<path d="M118.577 429.644C117.314 427.605 113.286 425.365 114.333 422.487C114.417 422.252 114.739 422.301 114.762 422.545C114.939 424.427 115.625 425.562 116.918 426.921C117.665 427.711 118.326 428.529 118.793 429.519C118.861 429.664 118.661 429.783 118.577 429.644Z" fill="#6DE4BC"/>
<path d="M106.709 434.159C107.321 432.996 107.337 431.932 107.573 430.692C107.608 430.498 107.908 430.511 107.953 430.692C108.269 431.955 107.734 433.302 107.102 434.391C106.954 434.646 106.574 434.42 106.709 434.159Z" fill="#6DE4BC"/>
<path d="M104.527 396.276C105.665 393.006 107.705 389.139 111.633 391.304C116.698 394.092 115.094 402.351 115.184 406.788C115.645 430.021 116.933 495.033 114.439 518.167C114.362 518.873 113.328 518.908 113.315 518.167C113.022 503.096 113.595 446.846 113.695 431.765C113.74 424.721 113.708 417.68 113.611 410.639C113.556 406.727 113.524 402.808 113.395 398.896C113.341 397.301 113.631 394.872 112.077 393.789C109.925 392.287 106.457 394.411 105.381 396.637C105.152 397.111 104.353 396.776 104.527 396.276Z" fill="#0E7B74"/>
<path d="M128.209 389.045C123.275 400.736 122.792 415.878 121.384 428.343C120.034 440.269 119.544 505.996 118.364 517.928C118.3 518.592 117.314 518.624 117.304 517.928C117.169 504.224 118.664 436.64 120.391 423.058C121.832 411.747 122.408 398.88 127.078 388.388C127.423 387.615 128.531 388.285 128.209 389.045Z" fill="#0E7B74"/>
<path d="M134.251 406.675C129.904 409.462 129.572 415.614 128.757 420.087C127.964 424.45 127.255 428.823 126.601 433.208C125.299 441.954 124.661 509.785 123.262 518.515C123.166 519.134 122.176 518.979 122.183 518.367C122.299 507.307 124.094 437.069 126.059 426.209C127.223 419.777 127.352 409.517 133.674 405.686C134.309 405.302 134.866 406.279 134.251 406.675Z" fill="#0E7B74"/>
<path d="M101.992 427.969C106.87 427.153 107.531 438.889 108.143 441.725C110.386 452.162 112.342 507.03 111.655 517.709C111.636 518.019 111.201 518.012 111.179 517.709C110.782 512.834 108.481 427.579 102.027 428.236C101.879 428.249 101.843 427.995 101.992 427.969Z" fill="#0E7B74"/>
<path d="M88.5602 402.792C88.8115 402.212 89.1306 401.664 89.5269 401.171C89.9813 400.598 90.5516 400.085 91.2477 399.853C91.8406 399.657 92.4786 399.689 93.1038 399.644C93.9319 399.589 94.7569 399.402 95.5335 399.099C96.1199 398.874 96.7451 398.484 96.8224 397.862C96.8837 397.372 96.5679 396.908 96.1779 396.602C95.4432 396.035 94.3992 395.899 93.5452 396.264C93.0522 396.47 92.6333 396.821 92.15 397.056C91.6698 397.288 91.0608 397.379 90.629 397.069C90.1521 396.724 90.0812 396.012 90.31 395.474C90.542 394.936 91.0028 394.533 91.4475 394.15C92.7332 393.064 94.0641 392.007 95.5818 391.282C97.0996 390.554 98.8332 390.173 100.483 390.505C102.13 390.834 103.667 391.955 104.227 393.541C104.411 394.059 104.495 394.623 104.775 395.094C105.197 395.8 105.984 396.193 106.754 396.463C107.701 396.799 108.684 397.002 109.686 397.085C110.566 397.153 111.484 397.13 112.283 397.511C112.928 397.82 113.434 398.374 113.833 398.97C114.987 400.688 115.361 402.857 115.11 404.906C114.855 406.959 114.011 408.905 112.909 410.652C112.499 411.303 112.039 411.934 111.436 412.401C110.83 412.872 109.274 413.581 108.52 413.458C107.791 413.255 108.233 412.253 108.52 411.86C109.213 410.909 109.735 409.74 109.374 408.618C109.045 407.597 108.143 407.909 107.431 408.85C105.903 410.861 107.791 411.812 105.761 414.599C105.355 415.157 102.826 416.61 102.136 416.684C101.611 416.739 100.725 417.125 100.254 416.732C99.5357 416.133 100.725 415.073 101.066 414.596C101.537 413.945 101.882 413.168 101.936 412.359C101.952 412.169 101.785 410.668 101.824 410.652C101.05 411.045 101.166 412.031 100.902 412.724C100.396 414.035 98.6076 414.512 97.3509 414.628C96.1779 414.731 94.9857 414.609 93.8256 414.805C92.8557 414.963 91.9276 415.35 91.1285 415.914C90.8932 416.081 90.6419 416.278 90.3519 416.268C89.7042 416.252 89.5334 415.366 89.5817 414.722C89.7686 412.218 90.3615 409.485 92.3659 407.967C92.7203 407.7 93.1134 407.481 93.4067 407.149C93.6999 406.814 93.8772 406.321 93.6999 405.918C93.3906 405.222 92.324 405.29 91.7407 405.776C91.1542 406.256 90.8255 406.991 90.2681 407.507C89.7074 408.022 88.6891 408.215 88.2702 407.577C88.1542 407.407 88.1091 407.197 88.0736 406.994C87.8126 405.586 87.9963 404.107 88.5602 402.792Z" fill="#42C5A0"/>
<path d="M153.72 429.815C153.569 428.855 153.292 427.917 152.892 427.031C152.431 426.003 151.787 425.02 150.836 424.411C150.027 423.889 149.064 423.686 148.149 423.383C146.931 422.98 145.777 422.394 144.733 421.65C143.95 421.086 143.16 420.267 143.28 419.307C143.376 418.556 144.027 417.979 144.723 417.676C146.035 417.112 147.646 417.306 148.78 418.176C149.434 418.672 149.927 419.358 150.556 419.89C151.184 420.419 152.061 420.789 152.827 420.486C153.665 420.161 154.042 419.123 153.904 418.231C153.765 417.341 153.234 416.568 152.711 415.83C151.213 413.719 149.631 411.631 147.649 409.968C145.664 408.306 143.228 407.071 140.64 406.933C138.056 406.794 135.333 407.884 133.893 410.036C133.419 410.739 133.081 411.547 132.481 412.147C131.585 413.033 130.264 413.32 129.008 413.426C127.47 413.561 125.917 413.497 124.396 413.233C123.059 413.001 121.696 412.617 120.362 412.878C119.276 413.094 118.319 413.719 117.494 414.454C115.122 416.578 113.737 419.668 113.327 422.823C112.918 425.984 113.437 429.206 114.417 432.235C114.777 433.357 115.216 434.468 115.937 435.4C116.663 436.328 118.709 437.984 119.882 438.087C121.048 438.064 120.771 436.399 120.494 435.706C119.824 434.02 119.498 432.077 120.465 430.543C121.341 429.148 122.566 429.96 123.272 431.629C124.78 435.213 121.596 435.918 123.555 440.849C123.948 441.831 127.174 444.96 128.166 445.331C128.933 445.618 130.106 446.536 130.96 446.127C132.259 445.505 130.889 443.472 130.564 442.637C130.113 441.483 129.897 440.194 130.119 438.967C130.171 438.677 130.996 436.505 130.944 436.463C131.946 437.343 131.386 438.777 131.521 439.911C131.772 442.06 134.266 443.446 136.097 444.1C137.805 444.706 139.625 444.977 141.282 445.708C142.661 446.317 143.901 447.245 144.878 448.399C145.165 448.737 145.464 449.117 145.899 449.217C146.873 449.44 147.462 448.189 147.636 447.206C148.316 443.404 148.474 439.105 146.067 436.083C145.642 435.548 145.139 435.061 144.83 434.449C144.52 433.84 144.446 433.047 144.868 432.509C145.593 431.594 147.156 432.1 147.842 433.044C148.532 433.988 148.735 435.206 149.37 436.189C150.005 437.169 151.458 437.842 152.322 437.059C152.56 436.846 152.711 436.556 152.844 436.266C153.772 434.269 154.062 431.99 153.72 429.815Z" fill="#42C5A0"/>
<path d="M110.482 427.908C108.407 424.025 103.496 421.959 99.3004 423.425C97.744 423.967 96.3165 424.856 94.7278 425.297C94.2445 425.433 93.7353 425.491 93.2262 425.51C92.021 423.01 90.1939 420.293 87.5322 420.158C84.2873 419.99 79.9692 422.761 77.9714 425.107C76.6051 426.712 75.5481 428.507 75.503 430.669C75.4933 431.075 75.5288 431.513 75.7737 431.842C76.1088 432.287 76.734 432.4 77.2882 432.364C77.8457 432.329 78.4032 432.18 78.9542 432.261C79.8242 432.383 80.5622 433.096 80.7845 433.95C81.0069 434.8 80.733 435.748 80.14 436.395C79.9016 436.663 79.6148 436.875 79.3183 437.079C78.5256 437.307 77.7458 437.565 77.0788 438.045C75.7415 439.002 75.1582 440.684 75.1485 442.279C75.1389 443.665 75.8027 444.851 76.2893 446.101C76.6212 446.962 77.9456 450.874 79.4182 449.54C79.7179 449.269 79.7598 448.824 79.8114 448.421C79.9628 447.284 80.4848 446.037 81.5708 445.663C82.241 445.428 83.0337 445.608 83.5429 446.101C84.0488 446.597 84.2486 447.384 84.0359 448.06C83.8877 448.531 83.5654 448.924 83.2948 449.34C82.805 450.094 82.4924 450.944 82.357 451.831C81.8866 453.384 81.9478 455.108 82.3442 456.7C82.8726 458.82 83.9457 460.757 85.0091 462.664C85.5053 459.577 88.7825 457.908 91.5828 456.516C94.0253 455.308 97.8761 453.899 97.4411 450.503C97.309 449.462 96.8288 448.26 97.5281 447.48C98.701 448.437 99.033 450.091 99.0265 451.602C99.0233 452.456 98.9363 453.306 98.9169 454.157C98.9073 454.579 98.6656 455.652 99.2488 455.839C99.4229 455.894 99.6098 455.81 99.7773 455.733C101.447 454.918 103.074 453.703 104.16 452.175C105.423 450.41 105.829 447.851 104.563 446.092C104.144 445.508 103.57 445.047 103.129 444.484C100.46 441.068 102.816 439.666 105.291 440.588C106.283 440.952 107.205 441.548 107.907 442.344C108.294 442.782 108.552 443.311 108.755 443.855C108.913 444.274 108.842 444.893 109.184 445.225C110.044 446.066 110.782 443.713 110.991 443.275C111.468 442.26 111.813 441.187 112.048 440.091C112.535 437.826 112.564 435.458 112.2 433.173C111.906 431.346 111.355 429.545 110.482 427.908Z" fill="#1D9E99"/>
<path d="M107.212 467.253C106.654 461.894 110.254 456.361 115.561 454.882C117.53 454.331 119.602 454.215 121.532 453.545C122.118 453.342 122.682 453.045 123.217 452.701C122.724 449.346 122.721 445.328 125.35 443.317C128.56 440.868 134.895 440.61 138.559 441.558C141.063 442.208 143.383 443.262 144.923 445.405C145.213 445.808 145.478 446.269 145.455 446.771C145.42 447.451 144.856 448.002 144.263 448.36C143.667 448.718 142.993 448.963 142.484 449.433C141.682 450.168 141.414 451.402 141.775 452.414C142.136 453.419 143.07 454.176 144.124 454.415C144.553 454.512 144.994 454.528 145.436 454.521C146.409 454.189 147.382 453.899 148.394 453.912C150.427 453.935 152.183 455.211 153.292 456.806C154.255 458.188 154.4 459.845 154.765 461.443C155.016 462.542 156.363 467.404 153.936 467.098C153.443 467.04 153.089 466.625 152.757 466.257C151.816 465.216 150.427 464.337 149.054 464.723C148.207 464.962 147.521 465.7 147.34 466.547C147.16 467.404 147.501 468.336 148.188 468.861C148.665 469.231 149.264 469.399 149.825 469.625C150.846 470.037 151.755 470.675 152.506 471.471C154.059 472.696 155.19 474.468 155.883 476.343C156.801 478.844 157.036 481.544 157.268 484.206C154.629 481.454 150.118 482.086 146.29 482.662C142.961 483.165 138.044 484.464 136.146 480.748C135.565 479.614 135.23 478.064 133.977 477.777C133.432 479.559 134.231 481.457 135.282 482.972C135.875 483.826 136.548 484.615 137.157 485.456C137.457 485.872 138.45 486.777 137.979 487.374C137.837 487.554 137.596 487.606 137.367 487.641C135.095 487.999 132.588 487.921 130.426 487.158C127.912 486.268 125.734 483.99 125.811 481.332C125.84 480.452 126.108 479.588 126.169 478.709C126.546 473.401 123.169 473.659 121.268 476.318C120.504 477.391 119.979 478.634 119.808 479.93C119.718 480.639 119.814 481.351 119.982 482.041C120.108 482.572 120.604 483.143 120.485 483.716C120.185 485.166 117.813 483.326 117.294 483.03C116.105 482.35 115.007 481.515 114.011 480.584C111.949 478.651 110.286 476.295 109.084 473.743C108.12 471.703 107.444 469.505 107.212 467.253Z" fill="#1D9E99"/>
<path d="M115.029 393.853C114.6 390.263 116.94 386.564 120.452 385.578C121.754 385.211 123.13 385.137 124.409 384.689C124.796 384.55 125.17 384.357 125.521 384.128C125.157 381.879 125.112 379.185 126.839 377.844C128.947 376.204 133.155 376.043 135.601 376.684C137.276 377.123 138.826 377.831 139.877 379.272C140.074 379.543 140.257 379.845 140.244 380.184C140.228 380.638 139.861 381.009 139.468 381.247C139.078 381.482 138.636 381.65 138.301 381.963C137.773 382.456 137.615 383.284 137.863 383.96C138.118 384.637 138.743 385.146 139.448 385.307C139.735 385.372 140.025 385.378 140.322 385.372C140.963 385.156 141.607 384.966 142.281 384.976C143.631 384.992 144.817 385.849 145.571 386.919C146.228 387.847 146.338 388.952 146.599 390.025C146.779 390.76 147.73 394.024 146.112 393.815C145.784 393.776 145.545 393.496 145.323 393.251C144.688 392.555 143.75 391.955 142.842 392.213C142.281 392.371 141.827 392.867 141.717 393.438C141.607 394.011 141.846 394.633 142.307 394.991C142.629 395.239 143.028 395.348 143.405 395.503C144.089 395.78 144.701 396.209 145.21 396.74C146.254 397.562 147.031 398.754 147.511 400.011C148.149 401.687 148.333 403.495 148.516 405.277C146.728 403.433 143.741 403.849 141.201 404.233C138.991 404.561 135.733 405.425 134.431 402.934C134.032 402.173 133.79 401.136 132.952 400.939C132.61 402.135 133.165 403.408 133.883 404.423C134.286 404.993 134.744 405.525 135.156 406.089C135.362 406.369 136.029 406.975 135.723 407.374C135.63 407.494 135.462 407.529 135.314 407.555C133.806 407.79 132.143 407.735 130.696 407.216C129.014 406.624 127.538 405.09 127.564 403.311C127.574 402.721 127.735 402.141 127.77 401.555C127.961 398 125.721 398.168 124.487 399.947C123.991 400.662 123.649 401.497 123.549 402.364C123.494 402.84 123.568 403.317 123.688 403.775C123.778 404.133 124.116 404.516 124.042 404.903C123.858 405.87 122.26 404.639 121.915 404.436C121.116 403.981 120.375 403.421 119.702 402.789C118.309 401.497 117.175 399.915 116.347 398.203C115.686 396.837 115.21 395.365 115.029 393.853Z" fill="#3CC7A0"/>
<path d="M333.018 324.108C359.644 324.108 381.46 345.923 381.46 372.55V453.01C381.46 456.348 378.702 459.107 375.366 459.107H290.669C287.334 459.107 284.575 456.348 284.575 453.01V372.55C284.575 345.859 306.388 324.108 333.018 324.108Z" fill="black"/>
<path d="M173.893 421.318H492.14V430.295H173.893V421.318Z" fill="#C5C5C5"/>
<path d="M196.801 430.295H469.3V554.835H196.801V430.295Z" fill="#C5C5C5"/>
<path d="M387.812 393.086L380.049 351.894C378.444 339.959 338.406 330.014 338.406 330.014H327.114C327.114 330.014 286.886 340.664 285.281 352.6L275.273 393.599C272.769 412.208 288.233 410.858 304.912 416.313L327.179 423.625H338.47L360.737 416.313C377.355 410.858 390.38 411.692 387.812 393.086Z" fill="#5192F1"/>
<path d="M377.545 361.578V361.9L376.069 424.779C375.299 425.42 374.271 425.806 373.182 425.806H291.439C291.181 425.806 290.927 425.806 290.733 425.742L289.064 361.578H377.545Z" fill="#2A93F4"/>
<path d="M321.405 322.571L324.804 339.572L333.211 354.266L340.201 339.572L342.962 322.313L321.405 322.571Z" fill="#FBD2B0"/>
<path d="M380.049 365.944L377.738 421.253C377.738 422.665 377.097 423.947 376.072 424.782C375.299 425.423 374.274 425.803 373.185 425.803H291.439C291.185 425.803 290.927 425.806 290.733 425.745C288.552 425.423 286.886 423.496 286.886 421.253L284.575 365.944C284.575 363.443 286.628 361.388 289.132 361.388H375.495C375.879 361.388 376.262 361.452 376.649 361.516C376.971 361.581 377.29 361.71 377.548 361.839C379.024 362.67 380.049 364.21 380.049 365.944Z" fill="#C1C1C1"/>
<path d="M332.183 385.001C336.933 385.001 340.781 388.849 340.781 393.599C340.781 398.348 336.933 402.196 332.183 402.196C327.437 402.196 323.586 398.348 323.586 393.599C323.586 388.849 327.437 385.001 332.183 385.001Z" fill="white"/>
<path d="M237.928 423.625H231.638C228.429 423.625 225.799 420.995 225.799 417.786V398.987H243.767V417.786C243.767 420.995 241.138 423.625 237.928 423.625Z" fill="#A4C8FF"/>
<path d="M235.492 396.805C235.17 396.805 234.915 396.676 234.658 396.55C234.403 396.354 234.21 396.099 234.016 395.842C233.694 395.329 233.504 394.688 233.504 393.982C233.504 393.276 233.887 392.506 234.339 392.055C234.786 391.543 235.17 391.224 235.363 390.966C235.621 390.708 235.685 390.579 235.814 390.26C235.879 390.006 235.94 389.622 235.94 389.232C235.94 388.465 235.621 387.502 235.363 386.41C235.879 386.603 236.391 386.925 236.839 387.312C237.29 387.695 237.674 388.208 237.867 388.788C238.122 389.361 238.25 390.006 238.186 390.708C238.186 391.098 238.057 391.417 237.867 391.801C237.674 392.123 237.48 392.442 237.226 392.7C236.775 393.212 236.327 393.47 236.069 393.728C235.814 393.982 235.621 394.111 235.492 394.366C235.363 394.623 235.234 395.075 235.234 395.458C235.17 395.909 235.17 396.354 235.492 396.805Z" fill="white"/>
<path d="M241.65 413.742V412.202C243.96 412.202 245.562 411.496 246.206 410.149C246.719 409.121 246.59 407.903 245.82 406.943C244.921 405.786 243.445 405.273 241.779 405.596L241.521 404.12C243.767 403.733 245.884 404.439 247.102 406.04C248.195 407.455 248.385 409.314 247.618 410.855C247.038 411.944 245.562 413.742 241.65 413.742Z" fill="#A4C8FF"/>
<path d="M422.91 395.587L419.253 396.293L415.66 376.594L416.813 372.55L419.317 375.953L422.91 395.587Z" fill="#2A93F4"/>
<path d="M434.975 399.757L431.382 398.861L436.128 379.481L438.887 376.207L439.786 380.38L434.975 399.757Z" fill="#DCF1FF"/>
<path d="M433.498 397.575L429.777 397.124L432.087 377.232L434.394 373.704L435.809 377.68L433.498 397.575Z" fill="#80D4FF"/>
<path d="M439.144 385.001L438.887 391.543L438.245 406.817L437.601 423.625H416.623L415.788 406.817L414.954 391.543L414.635 385.001H439.144Z" fill="white"/>
<path d="M438.886 391.54L438.242 406.814H415.785L414.95 391.54H438.886Z" fill="#2A93F4"/>
<path d="M196.929 430.492H469.17V434.855H196.929V430.492Z" fill="#CFD7D7"/>
<path d="M354.41 312.752C354.918 306.655 356.436 298.506 354.41 293.437C352.387 288.368 348.401 284.772 344.355 283.235C340.372 281.694 334.808 278.682 329.813 279.194C324.817 279.71 317.29 284.772 314.762 287.34C312.231 289.908 308.756 299.018 308.756 302.611C308.756 306.14 311.789 310.764 312.739 313.777C313.685 316.796 312.739 324.43 319.253 327.511C325.763 330.588 326.776 333.092 335.313 331.039C343.85 328.986 351.885 324.43 352.39 322.377C352.895 320.325 354.41 312.752 354.41 312.752Z" fill="#333333"/>
<path d="M352.012 306.333C352.012 324.81 348.847 332.061 337.465 336.298C334.556 337.39 331.455 337.262 328.482 336.359C317.29 333.024 314.978 328.319 314.978 310.032C314.978 298.289 320.831 290.807 331.331 290.807C341.827 290.807 352.012 294.591 352.012 306.333Z" fill="#FFE2C9"/>
<path d="M313.006 306.671C315.09 306.455 317.094 309.333 317.478 313.106C317.859 316.877 316.481 320.112 314.398 320.328C312.311 320.547 310.31 317.669 309.926 313.896C309.545 310.126 310.923 306.887 313.006 306.671Z" fill="#FFE2C9"/>
<path d="M346.741 312.352C347.125 308.579 349.126 305.701 351.21 305.917C353.293 306.133 354.671 309.368 354.29 313.142C353.906 316.912 351.905 319.796 349.818 319.574C347.732 319.358 346.36 316.123 346.741 312.352Z" fill="#FFE2C9"/>
<path d="M313.037 303.575C311.836 302.74 313.161 299.344 312.843 297.8C312.465 296.131 313.354 294.465 314.364 293.179C317.528 289.46 322.206 287.985 326.76 287.666C331.311 287.343 335.865 287.92 340.356 287.472C344.91 287.021 349.588 285.287 352.497 281.311C352.748 280.989 354.393 280.928 354.775 281.44C356.166 283.367 357.557 285.355 358.44 287.666C359.329 289.973 359.516 292.667 358.567 294.977C357.303 297.929 353.571 300.11 350.856 301.138C350.856 301.01 325.937 312.236 313.037 303.575Z" fill="#333333"/>
<path d="M346.277 299.127L351.778 310.804L354.814 297.071L346.277 299.127Z" fill="#333333"/>
<path d="M319.51 302.034C318.5 303.059 316.982 313.712 316.982 313.712L312.93 301.203L319.51 302.034Z" fill="#333333"/>
</g>
</g>
<defs>
<clipPath id="clip0_697_19603">
<rect width="669" height="556.106" fill="white"/>
</clipPath>
</defs>
</svg>
